<svg width="228" height="58" viewBox="0 0 228 58" fill="none" xmlns="http://www.w3.org/2000/svg">
<path d="M24.3136 32.6929C12.2601 32.6929 5.65552 39.2975 5.65552 51.3509C17.2136 51.3509 24.3136 44.0858 24.3136 32.6929Z" fill="#F58636"/>
<path d="M28.5933 33.6836C24.8686 45.1471 29.109 53.4694 40.5725 57.1941C44.1441 46.2017 39.4287 37.2042 28.5933 33.6836Z" fill="#F58636"/>
<path d="M31.0833 29.9552C40.8347 37.04 50.0601 35.5789 57.1449 25.8274C47.7942 19.0338 37.7799 20.7381 31.0833 29.9552Z" fill="#F58636"/>
<path d="M28.1807 26.0617C37.9321 18.9768 39.3933 9.75148 32.3085 4.18137e-05C22.9578 6.79372 21.4841 16.8445 28.1807 26.0617Z" fill="#F58636"/>
<path d="M23.8824 28.6426C20.1576 17.1791 11.8353 12.9386 0.371833 16.6634C3.94348 27.6558 13.047 32.1632 23.8824 28.6426Z" fill="#F58636"/>
<path d="M86.9903 28.7614C86.9903 26.7766 86.7284 25.3706 86.2046 24.5436C85.7084 23.7165 84.84 23.303 83.5995 23.303C83.2135 23.303 82.8138 23.3306 82.4003 23.3857C81.9867 23.4133 81.587 23.4546 81.2011 23.5098V40.2986H75.0396V19.2919C75.5634 19.1541 76.1699 19.0162 76.8591 18.8784C77.5759 18.713 78.3202 18.5751 79.0921 18.4649C79.8916 18.327 80.7048 18.2305 81.5319 18.1754C82.3589 18.0927 83.1721 18.0513 83.9716 18.0513C85.543 18.0513 86.8111 18.2581 87.776 18.6716C88.7684 19.0576 89.5817 19.5262 90.2157 20.0776C91.0979 19.4435 92.1041 18.9473 93.2344 18.5889C94.3923 18.2305 95.4536 18.0513 96.4185 18.0513C98.1553 18.0513 99.575 18.2995 100.678 18.7957C101.808 19.2643 102.704 19.9397 103.366 20.8219C104.027 21.7041 104.482 22.7517 104.73 23.9646C104.978 25.1776 105.102 26.5285 105.102 28.0171V40.2986H98.9409V28.7614C98.9409 26.7766 98.6791 25.3706 98.1553 24.5436C97.659 23.7165 96.7907 23.303 95.5501 23.303C95.2193 23.303 94.7506 23.3857 94.1441 23.5511C93.5652 23.7165 93.0828 23.9233 92.6968 24.1714C92.8898 24.8055 93.0139 25.4809 93.069 26.1976C93.1241 26.8868 93.1517 27.6312 93.1517 28.4306V40.2986H86.9903V28.7614ZM109.664 29.5885C109.664 27.6587 109.953 25.9771 110.532 24.5436C111.139 23.0825 111.924 21.8695 112.889 20.9046C113.854 19.9397 114.957 19.2092 116.197 18.713C117.465 18.2168 118.761 17.9686 120.084 17.9686C123.172 17.9686 125.612 18.9197 127.404 20.8219C129.195 22.6965 130.091 25.4671 130.091 29.1336C130.091 29.492 130.078 29.8917 130.05 30.3328C130.022 30.7463 129.995 31.1185 129.967 31.4493H115.99C116.128 32.7174 116.721 33.7237 117.769 34.468C118.816 35.2123 120.222 35.5845 121.986 35.5845C123.117 35.5845 124.219 35.488 125.295 35.295C126.397 35.0745 127.293 34.8126 127.982 34.5093L128.81 39.5129C128.479 39.6783 128.038 39.8437 127.486 40.0091C126.935 40.1745 126.315 40.3124 125.625 40.4226C124.964 40.5605 124.247 40.6707 123.475 40.7535C122.703 40.8362 121.931 40.8775 121.159 40.8775C119.202 40.8775 117.493 40.588 116.032 40.0091C114.598 39.4302 113.399 38.6445 112.434 37.6521C111.497 36.6321 110.794 35.4329 110.325 34.0545C109.884 32.6761 109.664 31.1874 109.664 29.5885ZM124.137 27.2314C124.109 26.7076 124.013 26.1976 123.847 25.7014C123.709 25.2052 123.475 24.7641 123.144 24.3782C122.841 23.9922 122.441 23.6752 121.945 23.4271C121.476 23.179 120.884 23.0549 120.167 23.0549C119.478 23.0549 118.885 23.179 118.389 23.4271C117.893 23.6476 117.479 23.9509 117.148 24.3368C116.817 24.7228 116.556 25.1776 116.363 25.7014C116.197 26.1976 116.073 26.7076 115.99 27.2314H124.137ZM147.955 24.006C147.403 23.8682 146.756 23.7303 146.011 23.5925C145.267 23.4271 144.467 23.3444 143.613 23.3444C143.227 23.3444 142.758 23.3857 142.207 23.4684C141.683 23.5236 141.283 23.5925 141.008 23.6752V40.2986H134.846V19.7054C135.949 19.3195 137.245 18.9611 138.733 18.6303C140.25 18.2719 141.931 18.0927 143.778 18.0927C144.109 18.0927 144.509 18.1203 144.977 18.1754C145.446 18.203 145.915 18.2581 146.383 18.3408C146.852 18.3959 147.321 18.4786 147.789 18.5889C148.258 18.6716 148.658 18.7819 148.989 18.9197L147.955 24.006ZM150.854 29.5885C150.854 27.6587 151.143 25.9771 151.722 24.5436C152.329 23.0825 153.114 21.8695 154.079 20.9046C155.044 19.9397 156.147 19.2092 157.387 18.713C158.656 18.2168 159.951 17.9686 161.274 17.9686C164.362 17.9686 166.802 18.9197 168.594 20.8219C170.386 22.6965 171.282 25.4671 171.282 29.1336C171.282 29.492 171.268 29.8917 171.24 30.3328C171.213 30.7463 171.185 31.1185 171.158 31.4493H157.181C157.319 32.7174 157.911 33.7237 158.959 34.468C160.006 35.2123 161.412 35.5845 163.177 35.5845C164.307 35.5845 165.41 35.488 166.485 35.295C167.588 35.0745 168.483 34.8126 169.173 34.5093L170 39.5129C169.669 39.6783 169.228 39.8437 168.676 40.0091C168.125 40.1745 167.505 40.3124 166.816 40.4226C166.154 40.5605 165.437 40.6707 164.665 40.7535C163.893 40.8362 163.122 40.8775 162.35 40.8775C160.392 40.8775 158.683 40.588 157.222 40.0091C155.788 39.4302 154.589 38.6445 153.624 37.6521C152.687 36.6321 151.984 35.4329 151.515 34.0545C151.074 32.6761 150.854 31.1874 150.854 29.5885ZM165.327 27.2314C165.299 26.7076 165.203 26.1976 165.038 25.7014C164.9 25.2052 164.665 24.7641 164.335 24.3782C164.031 23.9922 163.632 23.6752 163.135 23.4271C162.667 23.179 162.074 23.0549 161.357 23.0549C160.668 23.0549 160.075 23.179 159.579 23.4271C159.083 23.6476 158.669 23.9509 158.339 24.3368C158.008 24.7228 157.746 25.1776 157.553 25.7014C157.387 26.1976 157.263 26.7076 157.181 27.2314H165.327ZM182.198 26.4044C182.804 25.7428 183.425 25.0536 184.059 24.3368C184.72 23.62 185.354 22.9171 185.961 22.2279C186.567 21.5111 187.132 20.8357 187.656 20.2016C188.208 19.5676 188.676 19.0162 189.062 18.5476H196.381C194.92 20.2292 193.487 21.8419 192.081 23.3857C190.703 24.902 189.186 26.4733 187.532 28.0998C188.359 28.8442 189.214 29.7401 190.096 30.7877C190.978 31.8077 191.833 32.8691 192.66 33.9718C193.487 35.0745 194.245 36.1772 194.934 37.2799C195.623 38.3826 196.202 39.3888 196.671 40.2986H189.6C189.159 39.5818 188.649 38.7961 188.07 37.9415C187.518 37.0594 186.926 36.191 186.292 35.3364C185.658 34.4542 184.982 33.6134 184.265 32.8139C183.576 32.0145 182.887 31.339 182.198 30.7877V40.2986H176.036V9.20208L182.198 8.20963V26.4044ZM197.455 29.5885C197.455 27.6587 197.745 25.9771 198.324 24.5436C198.93 23.0825 199.716 21.8695 200.681 20.9046C201.646 19.9397 202.748 19.2092 203.989 18.713C205.257 18.2168 206.553 17.9686 207.876 17.9686C210.964 17.9686 213.403 18.9197 215.195 20.8219C216.987 22.6965 217.883 25.4671 217.883 29.1336C217.883 29.492 217.869 29.8917 217.842 30.3328C217.814 30.7463 217.787 31.1185 217.759 31.4493H203.782C203.92 32.7174 204.513 33.7237 205.56 34.468C206.608 35.2123 208.014 35.5845 209.778 35.5845C210.908 35.5845 212.011 35.488 213.086 35.295C214.189 35.0745 215.085 34.8126 215.774 34.5093L216.601 39.5129C216.27 39.6783 215.829 39.8437 215.278 40.0091C214.727 40.1745 214.106 40.3124 213.417 40.4226C212.755 40.5605 212.039 40.6707 211.267 40.7535C210.495 40.8362 209.723 40.8775 208.951 40.8775C206.994 40.8775 205.285 40.588 203.823 40.0091C202.39 39.4302 201.191 38.6445 200.226 37.6521C199.289 36.6321 198.586 35.4329 198.117 34.0545C197.676 32.6761 197.455 31.1874 197.455 29.5885ZM211.928 27.2314C211.901 26.7076 211.804 26.1976 211.639 25.7014C211.501 25.2052 211.267 24.7641 210.936 24.3782C210.633 23.9922 210.233 23.6752 209.737 23.4271C209.268 23.179 208.675 23.0549 207.959 23.0549C207.269 23.0549 206.677 23.179 206.181 23.4271C205.684 23.6476 205.271 23.9509 204.94 24.3368C204.609 24.7228 204.347 25.1776 204.154 25.7014C203.989 26.1976 203.865 26.7076 203.782 27.2314H211.928Z" fill="black"/>
</svg>
